PathFileType	4	(X/Y/Z)	C:\Users\°ÂÌØÂü\Desktop\20210112\bx_n_0_503-Unnamed.trc
DataRate	CameraRate	NumFrames	NumMarkers	Units	OrigDataRate	OrigDataStartFrame	OrigNumFrames
50.00	50.00	       4	0	mm	50.00	42	       333
Frame#	Time	
		

42	0.820	-663.70416	119.86810	1847.11719	-702.37341	289.95947	1526.12036	-565.76721	-3.47224	1053.83911	-562.41571	-5.15066	800.75549	-678.00696	143.98137	574.69537	-568.06445	222.32080	791.01300	-672.92169	270.60709	742.47424	-710.77472	253.11725	642.47351	-662.10010	204.02240	532.52289	-752.83661	258.94843	502.71643	-517.78589	-73.06780	143.36853	-718.29016	69.48621	217.01563	-549.19299	-24.66978	164.78026	-675.06702	52.46605	160.03999	-795.14929	179.71660	185.13414	-764.16168	227.31570	206.21976	-589.04803	207.72411	173.72874	-882.54156	296.18250	144.70186	-552.22943	243.61475	165.98393	-652.62073	292.02322	156.61438	-615.39874	297.83887	158.52104	-528.16821	304.10495	146.35884	-669.51508	-71.74418	1535.62976	-773.46606	93.13091	1056.58020	-793.47632	39.31212	175.66838	-750.82312	-45.03499	491.01233	-600.25214	27.73885	167.65883	-876.03687	-78.90970	141.42259	-634.21661	-72.16676	870.65509	-660.09491	-62.07555	756.14325				-692.59088	-35.93455	615.02051	-703.22607	-33.39286	568.86261	-713.49402	150.26851	216.38515	-675.03308	165.85553	156.84612	-606.32672	-72.75600	158.13272	-649.14435	-68.12746	160.92549	-759.43848	-19.73895	207.65210	-656.39520	13.81015	517.96490	-579.11224	113.17068	1353.35693				-579.77350	244.35303	1064.00439	-661.81055	286.78720	872.15063	-679.88690	73.61678	573.50476	-711.58026	247.77570	576.26685	
43	0.840	-663.19098	120.24268	1847.16260	-701.86603	290.23123	1526.14111	-565.90515	-3.38041	1053.85144	-562.47632	-5.10581	800.85175	-678.11298	144.05986	574.98254	-568.12915	222.29408	791.06189	-673.15387	270.70175	742.60217	-710.77167	253.29903	642.59222	-662.07867	204.16449	532.69244	-752.95636	258.93893	502.67795	-517.84814	-73.20969	143.39818	-718.44489	69.45002	217.00995	-549.27692	-24.63063	164.82332	-675.12933	52.49113	159.71782	-794.96545	179.72122	185.25606	-764.18372	227.00729	206.08220	-589.09491	207.85565	173.96474	-882.57678	296.23343	144.82069	-552.22943	243.61475	165.98393	-652.39557	291.86090	156.60745	-615.46100	297.82016	158.58798	-528.27087	304.22754	146.42125	-669.24316	-71.52353	1535.80164	-773.51416	93.39322	1056.60779	-793.39258	39.15340	175.71324	-750.73981	-45.02557	491.16766	-600.38898	28.02201	167.68114	-875.93073	-78.79627	141.25227	-634.39117	-71.98008	870.84857	-660.18372	-62.15972	756.34485				-692.61963	-35.73903	614.91467	-703.45129	-33.15458	568.66364	-713.49402	150.26851	216.38515	-674.91168	165.98058	156.98695	-606.35724	-72.61436	158.19554	-649.12573	-68.23274	161.08751	-759.29639	-19.58023	207.58606	-656.70099	13.57293	517.71124	-579.07660	113.23489	1353.43201				-579.82269	244.32318	1064.05298	-661.91486	286.80487	872.25494	-680.11304	73.79972	573.17511	-711.64642	248.03693	575.95087	
44	0.860	-662.46344	120.66578	1847.18677	-701.51855	290.44666	1526.24866	-566.19281	-3.37708	1053.91040	-562.56384	-5.24173	800.83356	-678.00647	144.09613	574.88641	-568.21979	222.42857	791.06372	-673.18713	270.92883	742.76636	-710.78076	253.42627	642.76605	-662.07867	204.16449	532.69244	-752.95636	258.93893	502.67795	-517.84088	-72.82920	143.10205	-718.51923	69.44177	217.16338	-549.12537	-24.68532	164.73761	-675.11511	52.39001	159.79112	-795.25745	179.62973	185.33963	-764.25580	227.15042	205.99820	-588.80725	207.60983	174.16277	-882.48743	296.05096	144.59955	-552.14093	243.59377	165.92613	-652.65216	291.98206	156.75862	-615.33801	297.86362	158.61273	-528.21887	304.07733	146.44493	-668.97003	-71.16360	1536.01709	-773.70184	93.49376	1056.56250	-793.38550	39.09157	175.78891	-751.07074	-44.97256	491.41071	-600.46863	28.06352	167.62292	-875.93073	-78.79627	141.25227	-634.72144	-71.79601	870.86249	-660.43903	-61.92656	756.15814				-692.76465	-35.89635	615.11548	-703.43604	-33.09836	568.79095	-713.61066	150.40843	216.20822	-674.91980	165.80035	156.97000	-606.32367	-72.51275	158.08812	-649.12573	-68.23274	161.08751	-759.45135	-19.94776	207.66833	-656.64545	13.70086	517.84320	-578.90625	113.26353	1353.40869				-579.85382	244.56342	1063.97571	-661.79333	287.00128	872.01062	-679.68958	73.54321	573.37848	-711.60303	248.30116	576.04926	
45	0.880	-662.21637	120.87759	1847.20337	-700.91724	290.51855	1526.43152	-566.23297	-3.29643	1053.82654	-562.64032	-5.01587	800.84167	-678.00647	144.09613	574.88641	-568.36243	222.53160	791.22455	-673.08929	271.09207	742.79614	-710.73004	253.57307	642.46680	-662.09900	204.12173	532.76636	-752.95398	259.05380	502.78470	-517.86926	-72.89358	143.33727	-718.36182	69.42550	217.13365	-549.19299	-24.66978	164.78026	-675.04309	52.08168	159.50143	-795.14691	179.78584	185.31723	-764.20331	227.17838	206.22177	-588.61536	207.75317	174.15210	-882.48456	296.10822	144.64120	-552.24725	243.58438	165.89665	-652.67249	291.95566	156.85152	-615.46100	297.82016	158.58798	-528.24670	304.10913	146.51436	-668.47528	-71.07072	1536.28259	-773.67834	93.62144	1056.46179	-793.50616	39.16127	175.84554	-751.07349	-44.92880	491.60846	-600.41644	27.70317	167.82037	-875.93073	-78.79627	141.25227	-634.66254	-71.76011	871.02179	-660.35901	-62.01236	756.16699				-692.77161	-35.58441	614.96155	-703.68115	-33.08512	569.08734	-713.45697	150.40036	216.14575	-674.93445	165.75815	156.92676	-606.21509	-72.33112	157.94357	-649.07361	-68.14002	160.85338	-759.35040	-19.74860	207.48643	-656.64545	13.70086	517.84320	-578.57465	113.43652	1353.31445				-579.86243	244.43636	1064.08179	-662.21942	287.43774	872.16614	-680.20020	73.95177	573.25281	-711.60303	248.30116	576.04926	
